<?xml version="1.0" encoding="UTF-8"?>
<svg version="1.1" xmlns="http://www.w3.org/2000/svg" width="500" height="500">
<path d="M0 0 C165 0 330 0 500 0 C500 165 500 330 500 500 C335 500 170 500 0 500 C0 335 0 170 0 0 Z " fill="#FEFEFE" transform="translate(0,0)"/>
<path d="M0 0 C1.78888489 1.27474612 3.58065468 2.54545159 5.375 3.8125 C11.87542265 8.53669843 17.92619185 13.74761714 24 19 C24.75410156 19.64066406 25.50820313 20.28132813 26.28515625 20.94140625 C35.13871656 28.52765773 42.76410308 36.8686578 50 46 C51.33305254 47.66689126 52.6663012 49.33362577 54 51 C51.66135631 55.20017277 48.81693822 58.81095213 45.6875 62.4375 C45.16551025 63.04295654 44.64352051 63.64841309 44.10571289 64.2722168 C34.91241132 74.79650308 25.0507516 84.43291661 14 93 C12.56333984 94.16208984 12.56333984 94.16208984 11.09765625 95.34765625 C-41.06836411 136.8568099 -109.38785897 155.49543522 -175.48876953 148.11816406 C-223.48690859 141.81909137 -269.16734483 122.61052909 -306 91 C-307.51400391 89.76056641 -307.51400391 89.76056641 -309.05859375 88.49609375 C-337.67264802 65.0105651 -337.67264802 65.0105651 -344 51 C-337.78076206 42.8966988 -331.0228542 35.40199911 -324 28 C-323.27554688 27.23300781 -322.55109375 26.46601563 -321.8046875 25.67578125 C-316.90205444 20.62428281 -311.55050074 16.31620431 -306 12 C-304.88944121 11.1121558 -303.78012896 10.22275079 -302.671875 9.33203125 C-268.2133366 -18.26837076 -226.72310186 -37.21468106 -183 -44 C-182.1951416 -44.12697266 -181.3902832 -44.25394531 -180.56103516 -44.38476562 C-119.57398559 -53.44237348 -48.91748409 -38.37142616 0 0 Z " fill="#FDFDFE" transform="translate(395,128)"/>
<path d="M0 0 C1.04671875 0.05929688 2.0934375 0.11859375 3.171875 0.1796875 C22.27000437 2.3427353 40.05410613 14.78717755 51.90234375 29.3359375 C65.20861867 47.32998105 68.14731802 67.22651726 65.6015625 89.03515625 C63.21552464 102.53021456 56.19413696 114.97495872 47 125 C46.37480469 125.70511719 45.74960937 126.41023438 45.10546875 127.13671875 C31.77332577 141.39206512 12.71626834 148.61693064 -6.43505859 149.33007812 C-25.99129154 149.70957052 -43.40534842 143.21923939 -58 130 C-58.70769531 129.36191406 -59.41539062 128.72382813 -60.14453125 128.06640625 C-73.52504679 115.35107887 -81.54066876 98.51149287 -82.24609375 80.01953125 C-82.42091009 71.51997673 -82.36440272 63.22269991 -80 55 C-79.82855469 54.23429687 -79.65710938 53.46859375 -79.48046875 52.6796875 C-75.22255776 35.59310274 -62.40674413 20.62528504 -48 11 C-32.68558624 1.82642128 -17.66720324 -1.09664458 0 0 Z " fill="#0F6CA5" transform="translate(258,105)"/>
<path d="M0 0 C1.78888489 1.27474612 3.58065468 2.54545159 5.375 3.8125 C11.87542265 8.53669843 17.92619185 13.74761714 24 19 C24.75410156 19.64066406 25.50820313 20.28132813 26.28515625 20.94140625 C35.13871656 28.52765773 42.76410308 36.8686578 50 46 C51.33305254 47.66689126 52.6663012 49.33362577 54 51 C51.66135631 55.20017277 48.81693822 58.81095213 45.6875 62.4375 C45.16551025 63.04295654 44.64352051 63.64841309 44.10571289 64.2722168 C34.91241132 74.79650308 25.0507516 84.43291661 14 93 C12.56333984 94.16208984 12.56333984 94.16208984 11.09765625 95.34765625 C-41.06836411 136.8568099 -109.38785897 155.49543522 -175.48876953 148.11816406 C-223.48690859 141.81909137 -269.16734483 122.61052909 -306 91 C-307.51400391 89.76056641 -307.51400391 89.76056641 -309.05859375 88.49609375 C-337.67264802 65.0105651 -337.67264802 65.0105651 -344 51 C-337.78076206 42.8966988 -331.0228542 35.40199911 -324 28 C-323.27554688 27.23300781 -322.55109375 26.46601563 -321.8046875 25.67578125 C-316.90205444 20.62428281 -311.55050074 16.31620431 -306 12 C-304.88944121 11.1121558 -303.78012896 10.22275079 -302.671875 9.33203125 C-268.2133366 -18.26837076 -226.72310186 -37.21468106 -183 -44 C-182.1951416 -44.12697266 -181.3902832 -44.25394531 -180.56103516 -44.38476562 C-119.57398559 -53.44237348 -48.91748409 -38.37142616 0 0 Z M-243 -6 C-244.19520264 -5.41460449 -244.19520264 -5.41460449 -245.41455078 -4.81738281 C-273.18693156 8.89336448 -299.37560459 27.68348218 -320 51 C-320.22954052 53.29340492 -320.22954052 53.29340492 -317.7890625 55.328125 C-316.86867188 56.20984375 -315.94828125 57.0915625 -315 58 C-314.24460937 58.77859375 -313.48921875 59.5571875 -312.7109375 60.359375 C-307.64733508 65.5415233 -302.41878056 70.28937672 -296.75 74.80078125 C-294.99515602 76.2041579 -293.2629477 77.63665255 -291.5625 79.10546875 C-252.74286679 112.40543536 -200.27247044 130.57456966 -149.41723633 130.20581055 C-146.80475115 130.18744553 -144.19262156 130.18530264 -141.58007812 130.18554688 C-126.70788648 130.15747584 -112.45653979 129.05870398 -97.875 126.0625 C-97.14065735 125.91271698 -96.4063147 125.76293396 -95.64971924 125.60861206 C-75.02982592 121.33759898 -55.46721638 114.15127994 -37 104 C-35.68117027 103.29653615 -34.36215498 102.5934201 -33.04296875 101.890625 C-14.08636502 91.65007005 2.81309654 78.63886103 18.6875 64.125 C19.25162598 63.61404785 19.81575195 63.1030957 20.39697266 62.57666016 C24.18711308 59.0409531 27.09813355 55.29626981 30 51 C27.50434749 48.47483195 25.00267549 45.95570627 22.5 43.4375 C21.80390625 42.73302734 21.1078125 42.02855469 20.390625 41.30273438 C-8.16520183 12.61470465 -44.01662623 -8.17991352 -83 -19 C-83.7209082 -19.226875 -84.44181641 -19.45375 -85.18457031 -19.6875 C-91.35888292 -21.62015939 -97.50719776 -22.99915095 -103.875 -24.125 C-104.77863281 -24.29386719 -105.68226563 -24.46273437 -106.61328125 -24.63671875 C-118.64650311 -26.80440552 -130.58699651 -27.18654169 -142.77954102 -27.18530273 C-145.16636235 -27.18748071 -147.55271348 -27.20568455 -149.93945312 -27.22460938 C-181.76368454 -27.34190349 -214.44617516 -20.17910225 -243 -6 Z " fill="#6545C5" transform="translate(395,128)"/>
<path d="M0 0 C24.50216012 -0.51583495 48.84740075 2.71507851 72 11 C72.80937012 11.28891113 73.61874023 11.57782227 74.45263672 11.87548828 C113.84512124 26.09870688 145.58129952 48.27743384 175 78 C171.02602914 83.63783559 166.75106587 88.51033596 161.6875 93.1875 C160.99454834 93.83041992 160.30159668 94.47333984 159.58764648 95.13574219 C147.09640163 106.54524496 133.38229245 116.14162771 119 125 C117.88753906 125.69609375 116.77507812 126.3921875 115.62890625 127.109375 C94.10321389 140.02995865 70.01227873 148.42443268 45.5 153.375 C44.25984131 153.62604492 43.01968262 153.87708984 41.74194336 154.13574219 C30.57681434 156.27865794 19.54684073 157.18947457 8.1875 157.0625 C7.38763672 157.05798828 6.58777344 157.05347656 5.76367188 157.04882812 C3.84241342 157.03732358 1.92119489 157.01940601 0 157 C0 155.68 0 154.36 0 153 C1.23492187 152.87625 2.46984375 152.7525 3.7421875 152.625 C25.74571117 150.08049388 44.667641 141.24489485 58.8359375 123.73046875 C71.9008339 106.07289043 75.50173398 85.3740986 72.72314453 63.85595703 C71.96289496 59.69669094 70.61359867 55.89647405 69 52 C68.7421875 51.36545898 68.484375 50.73091797 68.21875 50.07714844 C59.92574719 30.19889749 44.73798925 16.87221241 24.94921875 8.69921875 C16.93983192 5.7084641 8.45858116 4.847624 0 4 C0 2.68 0 1.36 0 0 Z " fill="#E3E3E4" transform="translate(250,101)"/>
<path d="M0 0 C8.95637924 6.50133112 15.6740053 15.63742743 18.37109375 26.42578125 C19.43067596 35.38240321 19.57406976 45.25863468 15.37109375 53.42578125 C14.7678125 54.64974609 14.7678125 54.64974609 14.15234375 55.8984375 C8.12382832 67.00095341 -1.12481367 73.61090678 -12.98046875 77.53515625 C-24.4253126 80.32897252 -35.1898398 78.75336777 -45.28125 72.8828125 C-54.77591147 66.64346353 -62.15688284 58.34384037 -65.24609375 47.19921875 C-65.79683291 43.20916971 -65.85321635 39.26196258 -65.87890625 35.23828125 C-65.89953125 34.41908203 -65.92015625 33.59988281 -65.94140625 32.75585938 C-65.95703125 30.3828125 -65.95703125 30.3828125 -65.62890625 26.42578125 C-64.63890625 25.76578125 -63.64890625 25.10578125 -62.62890625 24.42578125 C-62.17902344 24.85890625 -61.72914063 25.29203125 -61.265625 25.73828125 C-56.31321478 30.02573859 -52.72100145 31.21931617 -46.17578125 30.8125 C-39.54722199 29.80601631 -36.45100663 26.55831605 -32.62890625 21.42578125 C-30.76911233 17.70619341 -31.19074485 13.48485976 -31.62890625 9.42578125 C-33.34423881 4.47555523 -36.50294185 1.52025455 -40.62890625 -1.57421875 C-40.62890625 -2.23421875 -40.62890625 -2.89421875 -40.62890625 -3.57421875 C-26.97314252 -9.324014 -12.63390312 -7.56532386 0 0 Z " fill="#084163" transform="translate(273.62890625,143.57421875)"/>
<path d="M0 0 C3.3 0 6.6 0 10 0 C10 15.84 10 31.68 10 48 C6.7 48 3.4 48 0 48 C-0.33 46.68 -0.66 45.36 -1 44 C-1.433125 44.66 -1.86625 45.32 -2.3125 46 C-6.00371573 48.74695124 -8.85948312 48.62133418 -13.37109375 48.453125 C-17.25365879 47.78391617 -18.75412613 46.15826013 -21 43 C-21.52851563 42.26910156 -22.05703125 41.53820312 -22.6015625 40.78515625 C-25.49685614 35.01883122 -24.81214017 26.85923973 -23.49609375 20.60546875 C-21.97021823 16.60331524 -19.70577301 14.05876278 -16 12 C-10.30085019 11.36676113 -6.98963238 11.95754123 -2 15 C-1.67 15.33 -1.34 15.66 -1 16 C-0.67 10.72 -0.34 5.44 0 0 Z " fill="#6C4EC8" transform="translate(254,377)"/>
<path d="M0 0 C10.56 0 21.12 0 32 0 C32 2.97 32 5.94 32 9 C24.74 9 17.48 9 10 9 C10 12.63 10 16.26 10 20 C16.6 20 23.2 20 30 20 C30 22.64 30 25.28 30 28 C23.4 28 16.8 28 10 28 C10 31.96 10 35.92 10 40 C17.26 40 24.52 40 32 40 C32 42.64 32 45.28 32 48 C21.44 48 10.88 48 0 48 C0 32.16 0 16.32 0 0 Z " fill="#6E50C9" transform="translate(288,377)"/>
<path d="M0 0 C5.13708917 2.10550763 8.94403525 5.35493358 12 10 C13.84989522 15.54968566 13.96514041 21.03259839 11.375 26.3125 C7.41511067 30.7934274 3.77197696 34.51860068 -2.41796875 35.30859375 C-8.75212578 35.60341347 -12.58894519 34.94603407 -17.40625 30.69140625 C-21.28668649 26.57319792 -22.19032394 23.03524562 -22.4375 17.5 C-22.28295333 12.54106766 -21.40584811 9.76435843 -18 6 C-12.15754342 0.53014907 -7.98017857 -1.03835657 0 0 Z " fill="#FBFCFD" transform="translate(230,140)"/>
<path d="M0 0 C3.30293909 2.50009249 5.54600072 5.44825027 6.83203125 9.38671875 C6.83203125 12.35671875 6.83203125 15.32671875 6.83203125 18.38671875 C-1.08796875 18.38671875 -9.00796875 18.38671875 -17.16796875 18.38671875 C-16.17796875 20.69671875 -15.18796875 23.00671875 -14.16796875 25.38671875 C-12.71003991 25.44071611 -11.25154163 25.47951052 -9.79296875 25.51171875 C-8.98085938 25.53492188 -8.16875 25.558125 -7.33203125 25.58203125 C-4.95454632 25.60041926 -4.95454632 25.60041926 -3.16796875 23.38671875 C-1.00390625 23.19140625 -1.00390625 23.19140625 1.45703125 23.26171875 C2.68292969 23.28878906 2.68292969 23.28878906 3.93359375 23.31640625 C4.87332031 23.35121094 4.87332031 23.35121094 5.83203125 23.38671875 C4.42369405 27.86779167 2.47597987 30.42264779 -1.16796875 33.38671875 C-4.04934522 33.92509703 -6.1816593 34.15370881 -9.04296875 34.07421875 C-9.75606201 34.06205322 -10.46915527 34.0498877 -11.20385742 34.03735352 C-15.27036549 33.83872509 -18.2740342 33.38936639 -21.48046875 30.82421875 C-26.27085517 25.44443924 -27.70003586 19.88020394 -27.453125 12.81640625 C-26.87841625 7.9195728 -25.3933605 4.57986335 -21.79296875 1.07421875 C-14.60172487 -3.54872375 -7.52182805 -4.22824654 0 0 Z " fill="#6D4FC8" transform="translate(389.16796875,391.61328125)"/>
<path d="M0 0 C2.97 0 5.94 0 9 0 C9.33 5.28 9.66 10.56 10 16 C10.99 15.01 11.98 14.02 13 13 C16.72651773 11.75782742 20.12942074 11.4658747 24 12 C28.02744491 14.08830477 30.40886185 15.74780467 32 20 C32.22705078 23.02441406 32.22705078 23.02441406 32.1953125 26.515625 C32.18886719 27.76601563 32.18242187 29.01640625 32.17578125 30.3046875 C32.15902344 31.60664063 32.14226562 32.90859375 32.125 34.25 C32.11597656 35.56742187 32.10695312 36.88484375 32.09765625 38.2421875 C32.07408533 41.49497462 32.04118022 44.74739589 32 48 C28.7 48 25.4 48 22 48 C21.97494385 47.21761963 21.9498877 46.43523926 21.92407227 45.62915039 C21.80850212 42.10675051 21.68560051 38.5846444 21.5625 35.0625 C21.52318359 33.83080078 21.48386719 32.59910156 21.44335938 31.33007812 C21.40146484 30.16025391 21.35957031 28.99042969 21.31640625 27.78515625 C21.27974854 26.70113525 21.24309082 25.61711426 21.20532227 24.50024414 C21.27635735 22.060737 21.27635735 22.060737 20 21 C18.47480724 21.08937803 16.95318071 21.24537146 15.4375 21.4375 C14.61121094 21.53933594 13.78492188 21.64117187 12.93359375 21.74609375 C11.97646484 21.87177734 11.97646484 21.87177734 11 22 C10.00544091 24.98367726 9.80440368 27.2004192 9.68359375 30.32421875 C9.64169922 31.35224609 9.59980469 32.38027344 9.55664062 33.43945312 C9.51732422 34.51130859 9.47800781 35.58316406 9.4375 36.6875 C9.39431641 37.77095703 9.35113281 38.85441406 9.30664062 39.97070312 C9.20053162 42.64700791 9.09847639 45.32340526 9 48 C6.03 48 3.06 48 0 48 C0 32.16 0 16.32 0 0 Z " fill="#6B4DC8" transform="translate(149,377)"/>
<path d="M0 0 C3.3 0 6.6 0 10 0 C17 16.65517241 17 16.65517241 17 25 C17.66 25 18.32 25 19 25 C19.17015625 23.54207031 19.17015625 23.54207031 19.34375 22.0546875 C19.97875996 17.61632564 21.20705303 13.41019567 22.5 9.125 C22.72558594 8.35414063 22.95117188 7.58328125 23.18359375 6.7890625 C24.86624765 1.13375235 24.86624765 1.13375235 26 0 C27.68608966 -0.07205511 29.37500659 -0.08386068 31.0625 -0.0625 C31.98160156 -0.05347656 32.90070313 -0.04445313 33.84765625 -0.03515625 C34.55792969 -0.02355469 35.26820313 -0.01195312 36 0 C34.58396306 5.0419497 33.07307329 9.97281962 31.0625 14.8125 C29.48536042 18.61548939 28.26154812 22.41830343 27.125 26.375 C24.93054049 33.69564753 22.14012438 42.99221024 16 48 C13.11788698 48.96070434 11.30149956 49.10581883 8.3125 49.0625 C7.10013672 49.04896484 7.10013672 49.04896484 5.86328125 49.03515625 C5.24839844 49.02355469 4.63351562 49.01195312 4 49 C4 46.69 4 44.38 4 42 C6.31 41.34 8.62 40.68 11 40 C12.275795 35.36074547 11.64553913 32.69593764 9.90209961 28.29199219 C8.95945192 25.89697825 8.09541904 23.48428969 7.24609375 21.0546875 C6.80040039 19.78044922 6.80040039 19.78044922 6.34570312 18.48046875 C6.04599609 17.62066406 5.74628906 16.76085937 5.4375 15.875 C4.98213867 14.57369141 4.98213867 14.57369141 4.51757812 13.24609375 C2.97888742 8.84121448 1.46027214 4.43167167 0 0 Z " fill="#6C4EC8" transform="translate(324,389)"/>
<path d="M0 0 C12.21 0 24.42 0 37 0 C37 2.31 37 4.62 37 7 C32.38 7 27.76 7 23 7 C23 20.2 23 33.4 23 47 C20.03 47 17.06 47 14 47 C14 33.8 14 20.6 14 7 C9.38 7 4.76 7 0 7 C0 4.69 0 2.38 0 0 Z " fill="#6445C5" transform="translate(105,378)"/>
<path d="M0 0 C0 2.97 0 5.94 0 9 C-3.41796875 9.1953125 -3.41796875 9.1953125 -6.8359375 9.390625 C-9.12370249 9.77768707 -9.12370249 9.77768707 -10.109375 11.71289062 C-11.12614666 14.32394242 -11.31647783 16.40569765 -11.4140625 19.203125 C-11.47207031 20.67265625 -11.47207031 20.67265625 -11.53125 22.171875 C-11.57765625 23.69554687 -11.57765625 23.69554687 -11.625 25.25 C-11.68300781 26.796875 -11.68300781 26.796875 -11.7421875 28.375 C-11.83631674 30.9164894 -11.92194979 33.45797433 -12 36 C-14.97 36 -17.94 36 -21 36 C-21 24.45 -21 12.9 -21 1 C-18.03 1 -15.06 1 -12 1 C-11.67 1.99 -11.34 2.98 -11 4 C-10.29875 3.34 -9.5975 2.68 -8.875 2 C-5.56539771 -0.30233203 -3.93774177 -0.36630156 0 0 Z " fill="#6A4BC7" transform="translate(227,389)"/>
<path d="M0 0 C2.97 0 5.94 0 9 0 C9 11.55 9 23.1 9 35 C6.03 35 3.06 35 0 35 C0 23.45 0 11.9 0 0 Z " fill="#6748C6" transform="translate(189,390)"/>
<path d="M0 0 C4.07866406 0.65549958 5.00791241 1.35762177 7.5 4.5625 C8.30941131 8.62072085 8.1456262 12.48281031 7.5 16.5625 C5.20620959 19.97041718 3.92651699 21.17020783 0 22.25 C-3.02460831 21.41823272 -4.66743893 20.04690099 -6.546875 17.54296875 C-8.41985094 13.65117037 -8.2374913 9.74393651 -7.5 5.5625 C-5.45860682 1.47971364 -4.51756452 0.72603715 0 0 Z " fill="#F7F5FC" transform="translate(246.5,396.4375)"/>
<path d="M0 0 C1.9375 1.3125 1.9375 1.3125 3 3 C3 4.32 3 5.64 3 7 C-2.28 7 -7.56 7 -13 7 C-12.0372358 3.1489432 -11.81942585 2.36831772 -9 0 C-5.85000502 -1.57499749 -3.36459118 -0.70833498 0 0 Z " fill="#E8E4F6" transform="translate(384,397)"/>
<path d="M0 0 C1 1 1 1 1.25 3.9375 C1.1675 4.948125 1.085 5.95875 1 7 C-2 9 -2 9 -4.5625 8.75 C-7 8 -7 8 -9 6 C-9.125 3.375 -9.125 3.375 -9 1 C-5.65903378 -1.10357132 -3.7625171 -1.11858616 0 0 Z " fill="#7255CA" transform="translate(197,376)"/>
<path d="M0 0 C0.8353125 0.37125 0.8353125 0.37125 1.6875 0.75 C0.98625 1.141875 0.285 1.53375 -0.4375 1.9375 C-3.67324432 3.97742577 -6.41507782 6.25686929 -9.3125 8.75 C-7.925165 4.2096309 -5.3700603 -0.58054706 0 0 Z " fill="#8A72D3" transform="translate(240.3125,389.25)"/>
</svg>
